<svg xmlns="http://www.w3.org/2000/svg" viewBox="0 0 900 380" style="background:#fff"><text x="450.0" y="16" text-anchor="middle" font-size="14" font-weight="bold">The race: wall time to certified 1e-5 network gap (fixed-pool arms shown at their pool solve)</text><line x1="70" y1="270" x2="880" y2="270" stroke="#eee"/><text x="65" y="274" text-anchor="end" font-size="10">0.01s</text><line x1="70" y1="222" x2="880" y2="222" stroke="#eee"/><text x="65" y="226" text-anchor="end" font-size="10">0.1s</text><line x1="70" y1="174" x2="880" y2="174" stroke="#eee"/><text x="65" y="178" text-anchor="end" font-size="10">1s</text><line x1="70" y1="126" x2="880" y2="126" stroke="#eee"/><text x="65" y="130" text-anchor="end" font-size="10">10s</text><line x1="70" y1="78" x2="880" y2="78" stroke="#eee"/><text x="65" y="82" text-anchor="end" font-size="10">100s</text><line x1="70" y1="30" x2="880" y2="30" stroke="#eee"/><text x="65" y="34" text-anchor="end" font-size="10">1000s</text><rect x="70.0" y="232.6" width="10.1" height="37.4" fill="#8e44ad"/><rect x="81.9" y="236.4" width="10.1" height="33.6" fill="#245a8d"/><rect x="93.8" y="226.7" width="10.1" height="43.3" fill="#16a085"/><rect x="105.7" y="229.4" width="10.1" height="40.6" fill="#b7950b"/><rect x="117.6" y="252.6" width="10.1" height="17.4" fill="#c0392b"/><rect x="129.6" y="216.5" width="10.1" height="53.5" fill="#7f8c8d"/><rect x="141.5" y="227.7" width="10.1" height="42.3" fill="#1e8449"/><text x="121" y="284" text-anchor="middle" font-size="10">grid5</text><rect x="171.2" y="224.2" width="10.1" height="45.8" fill="#8e44ad"/><rect x="183.2" y="212.2" width="10.1" height="57.8" fill="#245a8d"/><rect x="195.1" y="177.6" width="10.1" height="92.4" fill="#16a085"/><rect x="207.0" y="207.6" width="10.1" height="62.4" fill="#b7950b"/><rect x="218.9" y="209.9" width="10.1" height="60.1" fill="#c0392b"/><rect x="230.8" y="198.0" width="10.1" height="72.0" fill="#7f8c8d"/><rect x="242.7" y="199.7" width="10.1" height="70.3" fill="#1e8449"/><text x="222" y="284" text-anchor="middle" font-size="10">grid10</text><rect x="272.5" y="207.6" width="10.1" height="62.4" fill="#8e44ad"/><rect x="284.4" y="185.7" width="10.1" height="84.3" fill="#245a8d"/><rect x="296.3" y="78.0" width="10.1" height="192.0" fill="#16a085"/><rect x="308.2" y="157.5" width="10.1" height="112.5" fill="#b7950b"/><rect x="320.1" y="153.7" width="10.1" height="116.3" fill="#c0392b"/><rect x="332.1" y="138.5" width="10.1" height="131.5" fill="#7f8c8d"/><rect x="344.0" y="143.9" width="10.1" height="126.1" fill="#1e8449"/><text x="323" y="284" text-anchor="middle" font-size="10">grid20</text><rect x="373.8" y="144.2" width="10.1" height="125.8" fill="#8e44ad"/><rect x="385.7" y="136.5" width="10.1" height="133.5" fill="#245a8d"/><rect x="397.6" y="40.6" width="10.1" height="229.4" fill="#16a085"/><rect x="409.5" y="82.7" width="10.1" height="187.3" fill="#b7950b"/><rect x="421.4" y="69.5" width="10.1" height="200.5" fill="#c0392b"/><rect x="433.3" y="81.9" width="10.1" height="188.1" fill="#7f8c8d"/><rect x="445.2" y="85.5" width="10.1" height="184.5" fill="#1e8449"/><text x="424" y="284" text-anchor="middle" font-size="10">grid40</text><rect x="475.0" y="218.2" width="10.1" height="51.8" fill="#8e44ad"/><text x="493" y="266" text-anchor="middle" font-size="9" fill="#c0392b">x</text><text x="505" y="266" text-anchor="middle" font-size="9" fill="#c0392b">x</text><text x="517" y="266" text-anchor="middle" font-size="9" fill="#c0392b">x</text><rect x="522.6" y="166.7" width="10.1" height="103.3" fill="#c0392b"/><rect x="534.6" y="199.9" width="10.1" height="70.1" fill="#7f8c8d"/><rect x="546.5" y="191.6" width="10.1" height="78.4" fill="#1e8449"/><text x="526" y="284" text-anchor="middle" font-size="10">sts5x20_s1</text><rect x="576.2" y="209.7" width="10.1" height="60.3" fill="#8e44ad"/><text x="594" y="266" text-anchor="middle" font-size="9" fill="#c0392b">x</text><text x="606" y="266" text-anchor="middle" font-size="9" fill="#c0392b">x</text><text x="618" y="266" text-anchor="middle" font-size="9" fill="#c0392b">x</text><rect x="623.9" y="138.3" width="10.1" height="131.7" fill="#c0392b"/><rect x="635.8" y="178.7" width="10.1" height="91.3" fill="#7f8c8d"/><rect x="647.7" y="177.0" width="10.1" height="93.0" fill="#1e8449"/><text x="627" y="284" text-anchor="middle" font-size="10">sts8x30_s1</text><rect x="677.5" y="236.4" width="10.1" height="33.6" fill="#8e44ad"/><rect x="689.4" y="224.2" width="10.1" height="45.8" fill="#245a8d"/><rect x="701.3" y="224.2" width="10.1" height="45.8" fill="#16a085"/><rect x="713.2" y="222.0" width="10.1" height="48.0" fill="#b7950b"/><rect x="725.1" y="225.6" width="10.1" height="44.4" fill="#c0392b"/><rect x="737.1" y="186.0" width="10.1" height="84.0" fill="#7f8c8d"/><rect x="749.0" y="187.0" width="10.1" height="83.0" fill="#1e8449"/><text x="728" y="284" text-anchor="middle" font-size="10">sioux_falls</text><rect x="778.8" y="183.0" width="10.1" height="87.0" fill="#8e44ad"/><rect x="790.7" y="130.2" width="10.1" height="139.8" fill="#245a8d"/><rect x="802.6" y="141.1" width="10.1" height="128.9" fill="#16a085"/><rect x="814.5" y="136.0" width="10.1" height="134.0" fill="#b7950b"/><rect x="826.4" y="118.1" width="10.1" height="151.9" fill="#c0392b"/><text x="844" y="266" text-anchor="middle" font-size="9" fill="#c0392b">x</text><text x="856" y="266" text-anchor="middle" font-size="9" fill="#c0392b">x</text><text x="829" y="284" text-anchor="middle" font-size="10">chicago_sketch</text><rect x="70" y="320" width="10" height="10" fill="#8e44ad"/><text x="84" y="329" font-size="10">tapb_B</text><rect x="188" y="320" width="10" height="10" fill="#245a8d"/><text x="202" y="329" font-size="10">task_TAPAS</text><rect x="306" y="320" width="10" height="10" fill="#16a085"/><text x="320" y="329" font-size="10">task_LUCE</text><rect x="424" y="320" width="10" height="10" fill="#b7950b"/><text x="438" y="329" font-size="10">task_BFW</text><rect x="542" y="320" width="10" height="10" fill="#c0392b"/><text x="556" y="329" font-size="10">latent_ol1</text><rect x="660" y="320" width="10" height="10" fill="#7f8c8d"/><text x="674" y="329" font-size="10">colcpp_full</text><rect x="778" y="320" width="10" height="10" fill="#1e8449"/><text x="792" y="329" font-size="10">colcpp_latent</text><text x="70" y="350" font-size="10" fill="#555">x = returned no flows (all TAsK arms on space-time instances). Fixed-pool arms (grey/green) solve a restricted master; their full-network gap is 8e-5..5.5e-3 — not the same claim as the others.</text></svg>