<svg xmlns="http://www.w3.org/2000/svg" viewBox="0 0 640 300" style="background:#fff"><text x="350" y="16" text-anchor="middle" font-size="13" font-weight="bold">anaheim — relative gap vs time</text><line x1="60" y1="260.0" x2="620" y2="260.0" stroke="#eee"/><text x="54" y="264.0" text-anchor="end" font-size="10">1e-6</text><line x1="60" y1="221.7" x2="620" y2="221.7" stroke="#eee"/><text x="54" y="225.7" text-anchor="end" font-size="10">1e-5</text><line x1="60" y1="183.3" x2="620" y2="183.3" stroke="#eee"/><text x="54" y="187.3" text-anchor="end" font-size="10">1e-4</text><line x1="60" y1="145.0" x2="620" y2="145.0" stroke="#eee"/><text x="54" y="149.0" text-anchor="end" font-size="10">1e-3</text><line x1="60" y1="106.7" x2="620" y2="106.7" stroke="#eee"/><text x="54" y="110.7" text-anchor="end" font-size="10">1e-2</text><line x1="60" y1="68.3" x2="620" y2="68.3" stroke="#eee"/><text x="54" y="72.3" text-anchor="end" font-size="10">1e-1</text><line x1="60" y1="30.0" x2="620" y2="30.0" stroke="#eee"/><text x="54" y="34.0" text-anchor="end" font-size="10">1e0</text><path d="M161.6,91.5 L215.9,126.7 L319.9,152.6 L421.5,169.9 L475.9,198.4 L539.7,210.8 L620.0,226.5" fill="none" stroke="#1c1c1c" stroke-width="1.8"/><rect x="70" y="24" width="12" height="4" fill="#1c1c1c"/><text x="86" y="30" font-size="11">p0</text><path d="M116.7,91.5 L182.9,126.7 L223.0,152.6 L267.9,169.9 L308.1,198.4 L341.2,210.9 L371.9,226.6" fill="none" stroke="#c0392b" stroke-width="1.8"/><rect x="70" y="38" width="12" height="4" fill="#c0392b"/><text x="86" y="44" font-size="11">ol1_k2</text><path d="M135.6,91.5 L218.3,126.7 L260.8,152.6 L338.8,169.9 L407.3,198.4 L506.6,210.8 L570.4,226.5" fill="none" stroke="#245a8d" stroke-width="1.8"/><rect x="70" y="52" width="12" height="4" fill="#245a8d"/><text x="86" y="58" font-size="11">ol1_k4</text><path d="M185.2,91.5 L327.0,126.7 L369.5,152.6 L464.1,169.9 L527.8,198.4 L575.1,210.8 L610.5,226.5" fill="none" stroke="#1e8449" stroke-width="1.8"/><rect x="70" y="66" width="12" height="4" fill="#1e8449"/><text x="86" y="72" font-size="11">ol1_k8</text><path d="M60.0,157.0 L60.0,180.8 L60.0,186.9 L60.0,210.9 L60.0,244.2" fill="none" stroke="#8e44ad" stroke-width="1.8"/><rect x="70" y="80" width="12" height="4" fill="#8e44ad"/><text x="86" y="86" font-size="11">tapb_B</text><text x="350" y="292" text-anchor="middle" font-size="11">wall time (s)</text></svg>